<mxfile host="app.diagrams.net" agent="Mozilla/5.0 (Windows NT 10.0; Win64; x64) AppleWebKit/537.36 (KHTML, like Gecko) Chrome/135.0.0.0 Safari/537.36" version="26.2.10">
  <diagram id="lH8GcW4VooGaDBP_BN3S" name="Page-1">
    <mxGraphModel dx="1044" dy="562" grid="1" gridSize="10" guides="1" tooltips="1" connect="1" arrows="1" fold="1" page="1" pageScale="1" pageWidth="850" pageHeight="1100" math="0" shadow="0">
      <root>
        <mxCell id="0" />
        <mxCell id="1" parent="0" />
        <mxCell id="DYqcG-s_CL7y3ovYFhGj-4" value="" style="edgeStyle=orthogonalEdgeStyle;rounded=0;orthogonalLoop=1;jettySize=auto;html=1;fontSize=14;" edge="1" parent="1" source="DYqcG-s_CL7y3ovYFhGj-1" target="DYqcG-s_CL7y3ovYFhGj-3">
          <mxGeometry relative="1" as="geometry" />
        </mxCell>
        <mxCell id="DYqcG-s_CL7y3ovYFhGj-1" value="Start" style="strokeWidth=2;html=1;shape=mxgraph.flowchart.start_1;whiteSpace=wrap;fontSize=14;" vertex="1" parent="1">
          <mxGeometry x="375" y="40" width="100" height="60" as="geometry" />
        </mxCell>
        <mxCell id="DYqcG-s_CL7y3ovYFhGj-2" value="End" style="strokeWidth=2;html=1;shape=mxgraph.flowchart.start_1;whiteSpace=wrap;fontSize=14;" vertex="1" parent="1">
          <mxGeometry x="375" y="1850" width="100" height="60" as="geometry" />
        </mxCell>
        <mxCell id="DYqcG-s_CL7y3ovYFhGj-6" value="" style="edgeStyle=orthogonalEdgeStyle;rounded=0;orthogonalLoop=1;jettySize=auto;html=1;fontSize=14;" edge="1" parent="1" source="DYqcG-s_CL7y3ovYFhGj-3" target="DYqcG-s_CL7y3ovYFhGj-5">
          <mxGeometry relative="1" as="geometry" />
        </mxCell>
        <mxCell id="DYqcG-s_CL7y3ovYFhGj-3" value="double avg&lt;div&gt;char grade&lt;/div&gt;" style="whiteSpace=wrap;html=1;strokeWidth=2;fontSize=14;" vertex="1" parent="1">
          <mxGeometry x="365" y="130" width="120" height="60" as="geometry" />
        </mxCell>
        <mxCell id="DYqcG-s_CL7y3ovYFhGj-8" value="" style="edgeStyle=orthogonalEdgeStyle;rounded=0;orthogonalLoop=1;jettySize=auto;html=1;fontSize=14;" edge="1" parent="1" source="DYqcG-s_CL7y3ovYFhGj-5" target="DYqcG-s_CL7y3ovYFhGj-7">
          <mxGeometry relative="1" as="geometry" />
        </mxCell>
        <mxCell id="DYqcG-s_CL7y3ovYFhGj-5" value="Enter avg" style="shape=parallelogram;perimeter=parallelogramPerimeter;whiteSpace=wrap;html=1;fixedSize=1;strokeWidth=2;fontSize=14;" vertex="1" parent="1">
          <mxGeometry x="365" y="240" width="120" height="60" as="geometry" />
        </mxCell>
        <mxCell id="DYqcG-s_CL7y3ovYFhGj-10" value="" style="edgeStyle=orthogonalEdgeStyle;rounded=0;orthogonalLoop=1;jettySize=auto;html=1;fontSize=14;" edge="1" parent="1" source="DYqcG-s_CL7y3ovYFhGj-7" target="DYqcG-s_CL7y3ovYFhGj-9">
          <mxGeometry relative="1" as="geometry" />
        </mxCell>
        <mxCell id="DYqcG-s_CL7y3ovYFhGj-23" value="True" style="edgeLabel;html=1;align=center;verticalAlign=middle;resizable=0;points=[];fontSize=14;" vertex="1" connectable="0" parent="DYqcG-s_CL7y3ovYFhGj-10">
          <mxGeometry x="-0.3013" relative="1" as="geometry">
            <mxPoint as="offset" />
          </mxGeometry>
        </mxCell>
        <mxCell id="DYqcG-s_CL7y3ovYFhGj-12" value="" style="edgeStyle=orthogonalEdgeStyle;rounded=0;orthogonalLoop=1;jettySize=auto;html=1;fontSize=14;" edge="1" parent="1" source="DYqcG-s_CL7y3ovYFhGj-7" target="DYqcG-s_CL7y3ovYFhGj-11">
          <mxGeometry relative="1" as="geometry" />
        </mxCell>
        <mxCell id="DYqcG-s_CL7y3ovYFhGj-24" value="False" style="edgeLabel;html=1;align=center;verticalAlign=middle;resizable=0;points=[];fontSize=14;" vertex="1" connectable="0" parent="DYqcG-s_CL7y3ovYFhGj-12">
          <mxGeometry x="-0.2" y="-1" relative="1" as="geometry">
            <mxPoint as="offset" />
          </mxGeometry>
        </mxCell>
        <mxCell id="DYqcG-s_CL7y3ovYFhGj-7" value="avg &amp;gt;= 80" style="rhombus;whiteSpace=wrap;html=1;strokeWidth=2;fontSize=14;" vertex="1" parent="1">
          <mxGeometry x="385" y="340" width="80" height="80" as="geometry" />
        </mxCell>
        <mxCell id="DYqcG-s_CL7y3ovYFhGj-9" value="grade = &#39;A&#39;" style="whiteSpace=wrap;html=1;strokeWidth=2;fontSize=14;" vertex="1" parent="1">
          <mxGeometry x="540" y="350" width="120" height="60" as="geometry" />
        </mxCell>
        <mxCell id="DYqcG-s_CL7y3ovYFhGj-14" value="" style="edgeStyle=orthogonalEdgeStyle;rounded=0;orthogonalLoop=1;jettySize=auto;html=1;fontSize=14;" edge="1" parent="1" source="DYqcG-s_CL7y3ovYFhGj-11" target="DYqcG-s_CL7y3ovYFhGj-13">
          <mxGeometry relative="1" as="geometry" />
        </mxCell>
        <mxCell id="DYqcG-s_CL7y3ovYFhGj-25" value="True" style="edgeLabel;html=1;align=center;verticalAlign=middle;resizable=0;points=[];fontSize=14;" vertex="1" connectable="0" parent="DYqcG-s_CL7y3ovYFhGj-14">
          <mxGeometry x="-0.2213" relative="1" as="geometry">
            <mxPoint as="offset" />
          </mxGeometry>
        </mxCell>
        <mxCell id="DYqcG-s_CL7y3ovYFhGj-16" value="" style="edgeStyle=orthogonalEdgeStyle;rounded=0;orthogonalLoop=1;jettySize=auto;html=1;fontSize=14;" edge="1" parent="1" source="DYqcG-s_CL7y3ovYFhGj-11" target="DYqcG-s_CL7y3ovYFhGj-15">
          <mxGeometry relative="1" as="geometry" />
        </mxCell>
        <mxCell id="DYqcG-s_CL7y3ovYFhGj-26" value="False" style="edgeLabel;html=1;align=center;verticalAlign=middle;resizable=0;points=[];fontSize=14;" vertex="1" connectable="0" parent="DYqcG-s_CL7y3ovYFhGj-16">
          <mxGeometry x="-0.2" relative="1" as="geometry">
            <mxPoint as="offset" />
          </mxGeometry>
        </mxCell>
        <mxCell id="DYqcG-s_CL7y3ovYFhGj-11" value="avg &amp;gt;=70&amp;nbsp;" style="rhombus;whiteSpace=wrap;html=1;strokeWidth=2;fontSize=14;" vertex="1" parent="1">
          <mxGeometry x="385" y="460" width="80" height="80" as="geometry" />
        </mxCell>
        <mxCell id="DYqcG-s_CL7y3ovYFhGj-13" value="grade = &#39;B&#39;" style="whiteSpace=wrap;html=1;strokeWidth=2;fontSize=14;" vertex="1" parent="1">
          <mxGeometry x="540" y="470" width="120" height="60" as="geometry" />
        </mxCell>
        <mxCell id="DYqcG-s_CL7y3ovYFhGj-18" value="" style="edgeStyle=orthogonalEdgeStyle;rounded=0;orthogonalLoop=1;jettySize=auto;html=1;fontSize=14;" edge="1" parent="1" source="DYqcG-s_CL7y3ovYFhGj-15" target="DYqcG-s_CL7y3ovYFhGj-17">
          <mxGeometry relative="1" as="geometry" />
        </mxCell>
        <mxCell id="DYqcG-s_CL7y3ovYFhGj-27" value="True" style="edgeLabel;html=1;align=center;verticalAlign=middle;resizable=0;points=[];fontSize=14;" vertex="1" connectable="0" parent="DYqcG-s_CL7y3ovYFhGj-18">
          <mxGeometry x="-0.0613" y="-1" relative="1" as="geometry">
            <mxPoint as="offset" />
          </mxGeometry>
        </mxCell>
        <mxCell id="DYqcG-s_CL7y3ovYFhGj-20" value="" style="edgeStyle=orthogonalEdgeStyle;rounded=0;orthogonalLoop=1;jettySize=auto;html=1;fontSize=14;" edge="1" parent="1" source="DYqcG-s_CL7y3ovYFhGj-15" target="DYqcG-s_CL7y3ovYFhGj-19">
          <mxGeometry relative="1" as="geometry" />
        </mxCell>
        <mxCell id="DYqcG-s_CL7y3ovYFhGj-28" value="False" style="edgeLabel;html=1;align=center;verticalAlign=middle;resizable=0;points=[];fontSize=14;" vertex="1" connectable="0" parent="DYqcG-s_CL7y3ovYFhGj-20">
          <mxGeometry x="-0.25" relative="1" as="geometry">
            <mxPoint as="offset" />
          </mxGeometry>
        </mxCell>
        <mxCell id="DYqcG-s_CL7y3ovYFhGj-15" value="avg &amp;gt;= 60" style="rhombus;whiteSpace=wrap;html=1;strokeWidth=2;fontSize=14;" vertex="1" parent="1">
          <mxGeometry x="385" y="580" width="80" height="80" as="geometry" />
        </mxCell>
        <mxCell id="DYqcG-s_CL7y3ovYFhGj-17" value="grade = &#39;C&#39;" style="whiteSpace=wrap;html=1;strokeWidth=2;fontSize=14;" vertex="1" parent="1">
          <mxGeometry x="540" y="590" width="120" height="60" as="geometry" />
        </mxCell>
        <mxCell id="DYqcG-s_CL7y3ovYFhGj-22" value="" style="edgeStyle=orthogonalEdgeStyle;rounded=0;orthogonalLoop=1;jettySize=auto;html=1;fontSize=14;" edge="1" parent="1" source="DYqcG-s_CL7y3ovYFhGj-19" target="DYqcG-s_CL7y3ovYFhGj-21">
          <mxGeometry relative="1" as="geometry" />
        </mxCell>
        <mxCell id="DYqcG-s_CL7y3ovYFhGj-29" value="True" style="edgeLabel;html=1;align=center;verticalAlign=middle;resizable=0;points=[];fontSize=14;" vertex="1" connectable="0" parent="DYqcG-s_CL7y3ovYFhGj-22">
          <mxGeometry x="0.072" relative="1" as="geometry">
            <mxPoint as="offset" />
          </mxGeometry>
        </mxCell>
        <mxCell id="DYqcG-s_CL7y3ovYFhGj-32" value="" style="edgeStyle=orthogonalEdgeStyle;rounded=0;orthogonalLoop=1;jettySize=auto;html=1;fontSize=14;" edge="1" parent="1" source="DYqcG-s_CL7y3ovYFhGj-19" target="DYqcG-s_CL7y3ovYFhGj-31">
          <mxGeometry relative="1" as="geometry" />
        </mxCell>
        <mxCell id="DYqcG-s_CL7y3ovYFhGj-33" value="False" style="edgeLabel;html=1;align=center;verticalAlign=middle;resizable=0;points=[];fontSize=14;" vertex="1" connectable="0" parent="DYqcG-s_CL7y3ovYFhGj-32">
          <mxGeometry x="-0.3" relative="1" as="geometry">
            <mxPoint as="offset" />
          </mxGeometry>
        </mxCell>
        <mxCell id="DYqcG-s_CL7y3ovYFhGj-19" value="avg &amp;gt; = 50" style="rhombus;whiteSpace=wrap;html=1;strokeWidth=2;fontSize=14;" vertex="1" parent="1">
          <mxGeometry x="385" y="700" width="80" height="80" as="geometry" />
        </mxCell>
        <mxCell id="DYqcG-s_CL7y3ovYFhGj-21" value="grade = &#39;D&#39;" style="whiteSpace=wrap;html=1;strokeWidth=2;fontSize=14;" vertex="1" parent="1">
          <mxGeometry x="540" y="710" width="120" height="60" as="geometry" />
        </mxCell>
        <mxCell id="DYqcG-s_CL7y3ovYFhGj-35" value="" style="edgeStyle=orthogonalEdgeStyle;rounded=0;orthogonalLoop=1;jettySize=auto;html=1;fontSize=14;" edge="1" parent="1" source="DYqcG-s_CL7y3ovYFhGj-31" target="DYqcG-s_CL7y3ovYFhGj-34">
          <mxGeometry relative="1" as="geometry" />
        </mxCell>
        <mxCell id="DYqcG-s_CL7y3ovYFhGj-31" value="grade = &#39;F&#39;" style="whiteSpace=wrap;html=1;strokeWidth=2;fontSize=14;" vertex="1" parent="1">
          <mxGeometry x="365" y="840" width="120" height="60" as="geometry" />
        </mxCell>
        <mxCell id="DYqcG-s_CL7y3ovYFhGj-37" value="" style="edgeStyle=orthogonalEdgeStyle;rounded=0;orthogonalLoop=1;jettySize=auto;html=1;fontSize=14;" edge="1" parent="1" source="DYqcG-s_CL7y3ovYFhGj-34" target="DYqcG-s_CL7y3ovYFhGj-36">
          <mxGeometry relative="1" as="geometry" />
        </mxCell>
        <mxCell id="DYqcG-s_CL7y3ovYFhGj-34" value="switch&lt;div&gt;(grade)&lt;/div&gt;" style="whiteSpace=wrap;html=1;strokeWidth=2;fontSize=14;" vertex="1" parent="1">
          <mxGeometry x="365" y="950" width="120" height="60" as="geometry" />
        </mxCell>
        <mxCell id="DYqcG-s_CL7y3ovYFhGj-39" value="" style="edgeStyle=orthogonalEdgeStyle;rounded=0;orthogonalLoop=1;jettySize=auto;html=1;fontSize=14;" edge="1" parent="1" source="DYqcG-s_CL7y3ovYFhGj-36" target="DYqcG-s_CL7y3ovYFhGj-38">
          <mxGeometry relative="1" as="geometry" />
        </mxCell>
        <mxCell id="DYqcG-s_CL7y3ovYFhGj-42" value="True" style="edgeLabel;html=1;align=center;verticalAlign=middle;resizable=0;points=[];fontSize=14;" vertex="1" connectable="0" parent="DYqcG-s_CL7y3ovYFhGj-39">
          <mxGeometry x="-0.1657" y="3" relative="1" as="geometry">
            <mxPoint as="offset" />
          </mxGeometry>
        </mxCell>
        <mxCell id="DYqcG-s_CL7y3ovYFhGj-44" value="" style="edgeStyle=orthogonalEdgeStyle;rounded=0;orthogonalLoop=1;jettySize=auto;html=1;fontSize=14;" edge="1" parent="1" source="DYqcG-s_CL7y3ovYFhGj-36" target="DYqcG-s_CL7y3ovYFhGj-43">
          <mxGeometry relative="1" as="geometry" />
        </mxCell>
        <mxCell id="DYqcG-s_CL7y3ovYFhGj-45" value="False" style="edgeLabel;html=1;align=center;verticalAlign=middle;resizable=0;points=[];fontSize=14;" vertex="1" connectable="0" parent="DYqcG-s_CL7y3ovYFhGj-44">
          <mxGeometry x="-0.15" relative="1" as="geometry">
            <mxPoint as="offset" />
          </mxGeometry>
        </mxCell>
        <mxCell id="DYqcG-s_CL7y3ovYFhGj-36" value="case &#39;A&#39;" style="rhombus;whiteSpace=wrap;html=1;strokeWidth=2;fontSize=14;" vertex="1" parent="1">
          <mxGeometry x="370" y="1060" width="110" height="80" as="geometry" />
        </mxCell>
        <mxCell id="DYqcG-s_CL7y3ovYFhGj-41" value="" style="edgeStyle=orthogonalEdgeStyle;rounded=0;orthogonalLoop=1;jettySize=auto;html=1;fontSize=14;" edge="1" parent="1" source="DYqcG-s_CL7y3ovYFhGj-38" target="DYqcG-s_CL7y3ovYFhGj-40">
          <mxGeometry relative="1" as="geometry" />
        </mxCell>
        <mxCell id="DYqcG-s_CL7y3ovYFhGj-38" value="Print Excellent" style="shape=parallelogram;perimeter=parallelogramPerimeter;whiteSpace=wrap;html=1;fixedSize=1;strokeWidth=2;fontSize=14;" vertex="1" parent="1">
          <mxGeometry x="540" y="1070" width="120" height="60" as="geometry" />
        </mxCell>
        <mxCell id="DYqcG-s_CL7y3ovYFhGj-40" value="break" style="whiteSpace=wrap;html=1;strokeWidth=2;fontSize=14;" vertex="1" parent="1">
          <mxGeometry x="740" y="1070" width="120" height="60" as="geometry" />
        </mxCell>
        <mxCell id="DYqcG-s_CL7y3ovYFhGj-47" value="" style="edgeStyle=orthogonalEdgeStyle;rounded=0;orthogonalLoop=1;jettySize=auto;html=1;fontSize=14;" edge="1" parent="1" source="DYqcG-s_CL7y3ovYFhGj-43" target="DYqcG-s_CL7y3ovYFhGj-46">
          <mxGeometry relative="1" as="geometry" />
        </mxCell>
        <mxCell id="DYqcG-s_CL7y3ovYFhGj-50" value="True" style="edgeLabel;html=1;align=center;verticalAlign=middle;resizable=0;points=[];fontSize=14;" vertex="1" connectable="0" parent="DYqcG-s_CL7y3ovYFhGj-47">
          <mxGeometry x="-0.272" y="-1" relative="1" as="geometry">
            <mxPoint as="offset" />
          </mxGeometry>
        </mxCell>
        <mxCell id="DYqcG-s_CL7y3ovYFhGj-52" value="" style="edgeStyle=orthogonalEdgeStyle;rounded=0;orthogonalLoop=1;jettySize=auto;html=1;fontSize=14;" edge="1" parent="1" source="DYqcG-s_CL7y3ovYFhGj-43" target="DYqcG-s_CL7y3ovYFhGj-51">
          <mxGeometry relative="1" as="geometry" />
        </mxCell>
        <mxCell id="DYqcG-s_CL7y3ovYFhGj-59" value="False" style="edgeLabel;html=1;align=center;verticalAlign=middle;resizable=0;points=[];fontSize=14;" vertex="1" connectable="0" parent="DYqcG-s_CL7y3ovYFhGj-52">
          <mxGeometry x="-0.35" relative="1" as="geometry">
            <mxPoint as="offset" />
          </mxGeometry>
        </mxCell>
        <mxCell id="DYqcG-s_CL7y3ovYFhGj-43" value="case &#39;B&#39;" style="rhombus;whiteSpace=wrap;html=1;strokeWidth=2;fontSize=14;" vertex="1" parent="1">
          <mxGeometry x="370" y="1180" width="110" height="80" as="geometry" />
        </mxCell>
        <mxCell id="DYqcG-s_CL7y3ovYFhGj-49" value="" style="edgeStyle=orthogonalEdgeStyle;rounded=0;orthogonalLoop=1;jettySize=auto;html=1;fontSize=14;" edge="1" parent="1" source="DYqcG-s_CL7y3ovYFhGj-46" target="DYqcG-s_CL7y3ovYFhGj-48">
          <mxGeometry relative="1" as="geometry" />
        </mxCell>
        <mxCell id="DYqcG-s_CL7y3ovYFhGj-46" value="Print Good" style="shape=parallelogram;perimeter=parallelogramPerimeter;whiteSpace=wrap;html=1;fixedSize=1;strokeWidth=2;fontSize=14;" vertex="1" parent="1">
          <mxGeometry x="530" y="1190" width="120" height="60" as="geometry" />
        </mxCell>
        <mxCell id="DYqcG-s_CL7y3ovYFhGj-48" value="break" style="whiteSpace=wrap;html=1;strokeWidth=2;fontSize=14;" vertex="1" parent="1">
          <mxGeometry x="740" y="1190" width="120" height="60" as="geometry" />
        </mxCell>
        <mxCell id="DYqcG-s_CL7y3ovYFhGj-54" value="" style="edgeStyle=orthogonalEdgeStyle;rounded=0;orthogonalLoop=1;jettySize=auto;html=1;fontSize=14;" edge="1" parent="1" source="DYqcG-s_CL7y3ovYFhGj-51" target="DYqcG-s_CL7y3ovYFhGj-53">
          <mxGeometry relative="1" as="geometry" />
        </mxCell>
        <mxCell id="DYqcG-s_CL7y3ovYFhGj-60" value="True" style="edgeLabel;html=1;align=center;verticalAlign=middle;resizable=0;points=[];fontSize=14;" vertex="1" connectable="0" parent="DYqcG-s_CL7y3ovYFhGj-54">
          <mxGeometry x="-0.26" y="-1" relative="1" as="geometry">
            <mxPoint as="offset" />
          </mxGeometry>
        </mxCell>
        <mxCell id="DYqcG-s_CL7y3ovYFhGj-58" value="" style="edgeStyle=orthogonalEdgeStyle;rounded=0;orthogonalLoop=1;jettySize=auto;html=1;fontSize=14;" edge="1" parent="1" source="DYqcG-s_CL7y3ovYFhGj-51" target="DYqcG-s_CL7y3ovYFhGj-57">
          <mxGeometry relative="1" as="geometry" />
        </mxCell>
        <mxCell id="DYqcG-s_CL7y3ovYFhGj-61" value="False" style="edgeLabel;html=1;align=center;verticalAlign=middle;resizable=0;points=[];fontSize=14;" vertex="1" connectable="0" parent="DYqcG-s_CL7y3ovYFhGj-58">
          <mxGeometry x="-0.16" relative="1" as="geometry">
            <mxPoint as="offset" />
          </mxGeometry>
        </mxCell>
        <mxCell id="DYqcG-s_CL7y3ovYFhGj-51" value="case &#39;C&#39;" style="rhombus;whiteSpace=wrap;html=1;strokeWidth=2;fontSize=14;" vertex="1" parent="1">
          <mxGeometry x="370" y="1300" width="110" height="80" as="geometry" />
        </mxCell>
        <mxCell id="DYqcG-s_CL7y3ovYFhGj-56" value="" style="edgeStyle=orthogonalEdgeStyle;rounded=0;orthogonalLoop=1;jettySize=auto;html=1;fontSize=14;" edge="1" parent="1" source="DYqcG-s_CL7y3ovYFhGj-53" target="DYqcG-s_CL7y3ovYFhGj-55">
          <mxGeometry relative="1" as="geometry" />
        </mxCell>
        <mxCell id="DYqcG-s_CL7y3ovYFhGj-53" value="Print Average" style="shape=parallelogram;perimeter=parallelogramPerimeter;whiteSpace=wrap;html=1;fixedSize=1;strokeWidth=2;fontSize=14;" vertex="1" parent="1">
          <mxGeometry x="530" y="1310" width="120" height="60" as="geometry" />
        </mxCell>
        <mxCell id="DYqcG-s_CL7y3ovYFhGj-55" value="break" style="whiteSpace=wrap;html=1;strokeWidth=2;fontSize=14;" vertex="1" parent="1">
          <mxGeometry x="740" y="1310" width="120" height="60" as="geometry" />
        </mxCell>
        <mxCell id="DYqcG-s_CL7y3ovYFhGj-63" value="" style="edgeStyle=orthogonalEdgeStyle;rounded=0;orthogonalLoop=1;jettySize=auto;html=1;fontSize=14;" edge="1" parent="1" source="DYqcG-s_CL7y3ovYFhGj-57" target="DYqcG-s_CL7y3ovYFhGj-62">
          <mxGeometry relative="1" as="geometry" />
        </mxCell>
        <mxCell id="DYqcG-s_CL7y3ovYFhGj-66" value="True" style="edgeLabel;html=1;align=center;verticalAlign=middle;resizable=0;points=[];fontSize=14;" vertex="1" connectable="0" parent="DYqcG-s_CL7y3ovYFhGj-63">
          <mxGeometry x="-0.2933" y="-1" relative="1" as="geometry">
            <mxPoint as="offset" />
          </mxGeometry>
        </mxCell>
        <mxCell id="DYqcG-s_CL7y3ovYFhGj-68" value="" style="edgeStyle=orthogonalEdgeStyle;rounded=0;orthogonalLoop=1;jettySize=auto;html=1;fontSize=14;" edge="1" parent="1" source="DYqcG-s_CL7y3ovYFhGj-57" target="DYqcG-s_CL7y3ovYFhGj-67">
          <mxGeometry relative="1" as="geometry" />
        </mxCell>
        <mxCell id="DYqcG-s_CL7y3ovYFhGj-84" value="False" style="edgeLabel;html=1;align=center;verticalAlign=middle;resizable=0;points=[];fontSize=14;" vertex="1" connectable="0" parent="DYqcG-s_CL7y3ovYFhGj-68">
          <mxGeometry x="0.224" y="1" relative="1" as="geometry">
            <mxPoint as="offset" />
          </mxGeometry>
        </mxCell>
        <mxCell id="DYqcG-s_CL7y3ovYFhGj-57" value="case &#39;D&#39;" style="rhombus;whiteSpace=wrap;html=1;strokeWidth=2;fontSize=14;" vertex="1" parent="1">
          <mxGeometry x="370" y="1430" width="110" height="80" as="geometry" />
        </mxCell>
        <mxCell id="DYqcG-s_CL7y3ovYFhGj-65" value="" style="edgeStyle=orthogonalEdgeStyle;rounded=0;orthogonalLoop=1;jettySize=auto;html=1;fontSize=14;" edge="1" parent="1" source="DYqcG-s_CL7y3ovYFhGj-62" target="DYqcG-s_CL7y3ovYFhGj-64">
          <mxGeometry relative="1" as="geometry" />
        </mxCell>
        <mxCell id="DYqcG-s_CL7y3ovYFhGj-62" value="Print Poor" style="shape=parallelogram;perimeter=parallelogramPerimeter;whiteSpace=wrap;html=1;fixedSize=1;strokeWidth=2;fontSize=14;" vertex="1" parent="1">
          <mxGeometry x="530" y="1440" width="120" height="60" as="geometry" />
        </mxCell>
        <mxCell id="DYqcG-s_CL7y3ovYFhGj-64" value="break" style="whiteSpace=wrap;html=1;strokeWidth=2;fontSize=14;" vertex="1" parent="1">
          <mxGeometry x="740" y="1440" width="120" height="60" as="geometry" />
        </mxCell>
        <mxCell id="DYqcG-s_CL7y3ovYFhGj-70" value="" style="edgeStyle=orthogonalEdgeStyle;rounded=0;orthogonalLoop=1;jettySize=auto;html=1;fontSize=14;" edge="1" parent="1" source="DYqcG-s_CL7y3ovYFhGj-67" target="DYqcG-s_CL7y3ovYFhGj-69">
          <mxGeometry relative="1" as="geometry" />
        </mxCell>
        <mxCell id="DYqcG-s_CL7y3ovYFhGj-71" value="True" style="edgeLabel;html=1;align=center;verticalAlign=middle;resizable=0;points=[];fontSize=14;" vertex="1" connectable="0" parent="DYqcG-s_CL7y3ovYFhGj-70">
          <mxGeometry x="-0.272" y="-1" relative="1" as="geometry">
            <mxPoint as="offset" />
          </mxGeometry>
        </mxCell>
        <mxCell id="DYqcG-s_CL7y3ovYFhGj-67" value="Default" style="rhombus;whiteSpace=wrap;html=1;strokeWidth=2;fontSize=14;" vertex="1" parent="1">
          <mxGeometry x="370" y="1540" width="110" height="80" as="geometry" />
        </mxCell>
        <mxCell id="DYqcG-s_CL7y3ovYFhGj-73" value="" style="edgeStyle=orthogonalEdgeStyle;rounded=0;orthogonalLoop=1;jettySize=auto;html=1;fontSize=14;" edge="1" parent="1" source="DYqcG-s_CL7y3ovYFhGj-69" target="DYqcG-s_CL7y3ovYFhGj-72">
          <mxGeometry relative="1" as="geometry" />
        </mxCell>
        <mxCell id="DYqcG-s_CL7y3ovYFhGj-69" value="Print Fail" style="shape=parallelogram;perimeter=parallelogramPerimeter;whiteSpace=wrap;html=1;fixedSize=1;strokeWidth=2;fontSize=14;" vertex="1" parent="1">
          <mxGeometry x="520" y="1550" width="120" height="60" as="geometry" />
        </mxCell>
        <mxCell id="DYqcG-s_CL7y3ovYFhGj-72" value="break" style="whiteSpace=wrap;html=1;strokeWidth=2;fontSize=14;" vertex="1" parent="1">
          <mxGeometry x="740" y="1550" width="120" height="60" as="geometry" />
        </mxCell>
        <mxCell id="DYqcG-s_CL7y3ovYFhGj-74" value="" style="edgeStyle=orthogonalEdgeStyle;rounded=0;orthogonalLoop=1;jettySize=auto;html=1;fontSize=14;" edge="1" parent="1">
          <mxGeometry relative="1" as="geometry">
            <mxPoint x="860" y="1579.5" as="sourcePoint" />
            <mxPoint x="970" y="1579.5" as="targetPoint" />
          </mxGeometry>
        </mxCell>
        <mxCell id="DYqcG-s_CL7y3ovYFhGj-75" value="" style="edgeStyle=orthogonalEdgeStyle;rounded=0;orthogonalLoop=1;jettySize=auto;html=1;fontSize=14;" edge="1" parent="1">
          <mxGeometry relative="1" as="geometry">
            <mxPoint x="860" y="1469.5" as="sourcePoint" />
            <mxPoint x="970" y="1469.5" as="targetPoint" />
          </mxGeometry>
        </mxCell>
        <mxCell id="DYqcG-s_CL7y3ovYFhGj-76" value="" style="edgeStyle=orthogonalEdgeStyle;rounded=0;orthogonalLoop=1;jettySize=auto;html=1;fontSize=14;" edge="1" parent="1">
          <mxGeometry relative="1" as="geometry">
            <mxPoint x="860" y="1339.5" as="sourcePoint" />
            <mxPoint x="970" y="1339.5" as="targetPoint" />
          </mxGeometry>
        </mxCell>
        <mxCell id="DYqcG-s_CL7y3ovYFhGj-77" value="" style="edgeStyle=orthogonalEdgeStyle;rounded=0;orthogonalLoop=1;jettySize=auto;html=1;fontSize=14;" edge="1" parent="1">
          <mxGeometry relative="1" as="geometry">
            <mxPoint x="860" y="1219.5" as="sourcePoint" />
            <mxPoint x="970" y="1219.5" as="targetPoint" />
          </mxGeometry>
        </mxCell>
        <mxCell id="DYqcG-s_CL7y3ovYFhGj-78" value="" style="edgeStyle=orthogonalEdgeStyle;rounded=0;orthogonalLoop=1;jettySize=auto;html=1;fontSize=14;" edge="1" parent="1">
          <mxGeometry relative="1" as="geometry">
            <mxPoint x="860" y="1099" as="sourcePoint" />
            <mxPoint x="970" y="1099" as="targetPoint" />
          </mxGeometry>
        </mxCell>
        <mxCell id="DYqcG-s_CL7y3ovYFhGj-83" value="" style="edgeStyle=orthogonalEdgeStyle;rounded=0;orthogonalLoop=1;jettySize=auto;html=1;fontSize=14;" edge="1" parent="1" source="DYqcG-s_CL7y3ovYFhGj-80" target="DYqcG-s_CL7y3ovYFhGj-2">
          <mxGeometry relative="1" as="geometry" />
        </mxCell>
        <mxCell id="DYqcG-s_CL7y3ovYFhGj-80" value="" style="strokeWidth=2;html=1;shape=mxgraph.flowchart.start_2;whiteSpace=wrap;fontSize=14;" vertex="1" parent="1">
          <mxGeometry x="385" y="1720" width="80" height="80" as="geometry" />
        </mxCell>
        <mxCell id="DYqcG-s_CL7y3ovYFhGj-81" value="" style="endArrow=none;html=1;rounded=0;fontSize=14;" edge="1" parent="1">
          <mxGeometry width="50" height="50" relative="1" as="geometry">
            <mxPoint x="970" y="1760" as="sourcePoint" />
            <mxPoint x="970" y="1100" as="targetPoint" />
          </mxGeometry>
        </mxCell>
        <mxCell id="DYqcG-s_CL7y3ovYFhGj-82" value="" style="endArrow=classic;html=1;rounded=0;entryX=1;entryY=0.5;entryDx=0;entryDy=0;entryPerimeter=0;fontSize=14;" edge="1" parent="1" target="DYqcG-s_CL7y3ovYFhGj-80">
          <mxGeometry width="50" height="50" relative="1" as="geometry">
            <mxPoint x="970" y="1760" as="sourcePoint" />
            <mxPoint x="470" y="1760" as="targetPoint" />
          </mxGeometry>
        </mxCell>
      </root>
    </mxGraphModel>
  </diagram>
</mxfile>
